PathFileType	4	(X/Y/Z)	C:\Users\chris\Documents\GitHub\baseballds\vids\pitch4_Sports2D\pitch4_Sports2D_m_person00.trc
DataRate	CameraRate	NumFrames	NumMarkers	Units	OrigDataRate	OrigDataStartFrame	OrigNumFrames
30	30	12	22	m	30	59	238
Frame#	Time	Hip			RHip			RKnee			RAnkle			RBigToe			RSmallToe			RHeel			LHip			LKnee			LAnkle			LBigToe			LSmallToe			LHeel			Neck			Head			Nose			RShoulder			RElbow			RWrist			LShoulder			LElbow			LWrist		
		X1	Y1	Z1	X2	Y2	Z2	X3	Y3	Z3	X4	Y4	Z4	X5	Y5	Z5	X6	Y6	Z6	X7	Y7	Z7	X8	Y8	Z8	X9	Y9	Z9	X10	Y10	Z10	X11	Y11	Z11	X12	Y12	Z12	X13	Y13	Z13	X14	Y14	Z14	X15	Y15	Z15	X16	Y16	Z16	X17	Y17	Z17	X18	Y18	Z18	X19	Y19	Z19	X20	Y20	Z20	X21	Y21	Z21	X22	Y22	Z22
59	1.9666666666666666	0.8222046038577425	0.8950084374175413	0.0	0.7706720124649203	0.8955348107271545	0.0	0.6997728772244661	0.46665947700049953	0.0	0.4312231647184392	0.13228559400849205	0.0	0.5932769425825709	-0.030062605866439492	0.0	0.5352573091553084	-0.027591613687874227	0.0	0.36773319877194754	0.10401702411629878	0.0	0.8774653276933063	0.8550677417439593	0.0	0.7463692560614303	0.4878763778374933	0.0	0.5775371671286949	0.23091222876530182	0.0	0.7233742418925754	0.08101010313902654	0.0	0.7151048549541871	0.1214130087530195	0.0	0.5165936179452727	0.20788649167778825	0.0	1.2421277720447559	1.3490714626017302	0.0	1.3984668884185807	1.5678885840797152	0.0	1.4470375732836425	1.3857064475592316	0.0	1.12759381106567	1.2965322240879902	0.0	0.9154983820536223	1.0287054602380254	0.0	1.174623889268755	0.8527145574071964	0.0	1.2557399921362384	1.2287285488798627	0.0	1.090604906879613	1.0069922899490382	0.0	1.1817878920358542	0.8635768020277746	0.0
60	2.0	0.8225804532502463	0.8912277442093806	0.0	0.7692493132400658	0.8915839321839943	0.0	0.7013330454525709	0.46320166390827033	0.0	0.42977169138695837	0.1299091727241715	0.0	0.58937872384818	-0.03210897943697453	0.0	0.5325446357492095	-0.027621277358689342	0.0	0.3655859228123166	0.10245796546924545	0.0	0.8763397906025097	0.8508307373738101	0.0	0.7502589896900939	0.482718458169598	0.0	0.5748142986328693	0.22530276733512145	0.0	0.7152167216125419	0.06733510216972784	0.0	0.7091319699022197	0.10766965979410788	0.0	0.5162745905287446	0.20051736922141092	0.0	1.2389277511395227	1.344807404888247	0.0	1.3955783891239366	1.5635942154969797	0.0	1.4435917823914826	1.3797630902588498	0.0	1.122006306598037	1.2918751552734173	0.0	0.9182199020797515	1.0210619731376254	0.0	1.1808849905176815	0.8556015378190532	0.0	1.2514988315895252	1.2260749456103004	0.0	1.0895537935632262	1.0046756718157381	0.0	1.1799423687495236	0.8611846067404282	0.0
61	2.033333333333333	0.8215795920129546	0.8878907242890471	0.0	0.7672083466661844	0.8881131288656793	0.0	0.705294470010592	0.4593179909031691	0.0	0.4289770046772176	0.12760700201265707	0.0	0.5896212470937263	-0.03470288359491263	0.0	0.5348087262076733	-0.028819472982089527	0.0	0.36403438390892245	0.10019838326913832	0.0	0.8762304596013004	0.8465652624244429	0.0	0.7556614578037056	0.47670968767871746	0.0	0.5741655442540375	0.22198902589843006	0.0	0.707367661747683	0.055259627840462865	0.0	0.7025801645185112	0.09709433369314974	0.0	0.517119904707324	0.1974727104680403	0.0	1.2359343309473432	1.3411674447392825	0.0	1.3908020653952642	1.558110645442827	0.0	1.4414257988789765	1.3758071983187885	0.0	1.1171686133608132	1.2866900801756769	0.0	0.9214705135815019	1.0117112334775358	0.0	1.183064828715237	0.8570223091520447	0.0	1.2477916811572507	1.2223717320293066	0.0	1.0870103809822709	0.999562838596174	0.0	1.185799992503454	0.8640925437908623	0.0
62	2.0666666666666664	0.8194485703946471	0.8834564952766852	0.0	0.765167746481841	0.8834705258757225	0.0	0.7113044171347919	0.4544074050026095	0.0	0.4281545153808147	0.1265888627084304	0.0	0.5895272772740205	-0.034016186061943995	0.0	0.5359868677744851	-0.027372094585997243	0.0	0.3625503719994612	0.09853551263274127	0.0	0.8748751569332968	0.8418508100154543	0.0	0.7597192101324393	0.47109704572200184	0.0	0.576050636490014	0.21815810659732238	0.0	0.7042497694737062	0.04901671110867781	0.0	0.6995432528506902	0.09173359117991477	0.0	0.5188131316256247	0.1956113817947429	0.0	1.2332827285203298	1.3376131191126284	0.0	1.3859856343358545	1.5518719296232317	0.0	1.4400827596904404	1.3737273595349548	0.0	1.113088474087178	1.2817042329080088	0.0	0.9244939543750975	1.0023918608320428	0.0	1.1835645558315904	0.8563126116708186	0.0	1.2435907342538077	1.2179512389645448	0.0	1.083832085204878	0.994013477188125	0.0	1.1928224362106508	0.8672375311070111	0.0
63	2.1	0.8183993054647533	0.8782133744058064	0.0	0.7650305907535331	0.8772273551827411	0.0	0.7180510240830221	0.4481503489308152	0.0	0.4279903443006026	0.12685036040369907	0.0	0.5877090870926286	-0.02989053041715711	0.0	0.5346134268342486	-0.023081017031534708	0.0	0.3612501542148856	0.0973655625154199	0.0	0.8713711389312631	0.8372209765299152	0.0	0.7610748777740478	0.46637605289525597	0.0	0.57751257950947	0.21297043614641725	0.0	0.7054135501179001	0.04712418286706085	0.0	0.7004466531050992	0.08968386749862464	0.0	0.5195847750315657	0.19189902802514322	0.0	1.2304978984868942	1.3336019263982162	0.0	1.3830961885907163	1.545962218271875	0.0	1.4371009849796559	1.3704396877170053	0.0	1.1102118126658682	1.2774564335392262	0.0	0.9267477061075776	0.994400740532475	0.0	1.1832775115273184	0.8548091137267974	0.0	1.237951073433945	1.21354488015327	0.0	1.0798912076324891	0.9896943700780231	0.0	1.1966311263641842	0.8666181791034112	0.0
64	2.1333333333333333	0.8197684090695143	0.8746606799503868	0.0	0.7676717438254465	0.8729134742165621	0.0	0.7237428660413291	0.4423913991495279	0.0	0.429506429075018	0.12615544791538472	0.0	0.5884189695330418	-0.028652645633023655	0.0	0.5361562215616656	-0.022162888506166815	0.0	0.3614014324311266	0.0958986523400277	0.0	0.8691365595311488	0.8345236888160487	0.0	0.7623106054758324	0.4621867305086353	0.0	0.5761452491259956	0.20895029695854947	0.0	0.7066861890456345	0.04529678923488475	0.0	0.7017628991928326	0.08768102924987464	0.0	0.5180628229732633	0.188387204892595	0.0	1.2284674676892366	1.3294455894347412	0.0	1.380766093390363	1.541856954095327	0.0	1.4329637579348626	1.3667561029901933	0.0	1.1100194325195476	1.2738120785393139	0.0	0.9283520430716512	0.9896110165293228	0.0	1.1814123249799278	0.8547561102764677	0.0	1.2331933267359152	1.210096036452426	0.0	1.076202728045876	0.9853599023503039	0.0	1.1985403339992193	0.8653162935945147	0.0
65	2.1666666666666665	0.8223326831931305	0.8744998850707765	0.0	0.7715841737914015	0.8729157765678	0.0	0.7271461799255042	0.4401934349207526	0.0	0.4316996517162363	0.12392771305510332	0.0	0.592811049187325	-0.03299121824580565	0.0	0.5412802501450141	-0.02686272867746457	0.0	0.3629771388685762	0.09446335358830937	0.0	0.8706621264439669	0.8342990049190613	0.0	0.7649329021205592	0.4588029241980691	0.0	0.5725937478333643	0.2080025462187574	0.0	0.704885463026232	0.042310286273818935	0.0	0.699949530081059	0.0843966940258526	0.0	0.5141186460174025	0.18770321067392223	0.0	1.2278488590621106	1.3255682906539532	0.0	1.3765271927304474	1.5390848750611603	0.0	1.429874278748286	1.3657441124278658	0.0	1.111529845685291	1.2706605033557299	0.0	0.929821834597014	0.9885867055747314	0.0	1.1792059653964968	0.855260661000432	0.0	1.2314063709912058	1.2080141115833238	0.0	1.0743989234390618	0.9806083191826972	0.0	1.199703275941275	0.8645792281577565	0.0
66	2.2	0.8243715114784248	0.8765008651372489	0.0	0.7744992157802747	0.8740479153508188	0.0	0.7288322088651503	0.4412944377465972	0.0	0.43289475978551506	0.12206370006105018	0.0	0.5966489190688822	-0.03739240641345738	0.0	0.5448879727278617	-0.031764761954148346	0.0	0.36405418409250095	0.09336496116575431	0.0	0.873498613756168	0.8347166072635113	0.0	0.765701348028459	0.45716446290833623	0.0	0.570137406402782	0.20881894227847803	0.0	0.7022109849415291	0.04044816213763224	0.0	0.6969544623098687	0.08189226807616756	0.0	0.5102690145521371	0.18838963983056442	0.0	1.2279974200970531	1.3228481108508652	0.0	1.3721453651384232	1.5353948286666794	0.0	1.4284362577303065	1.3661389311007723	0.0	1.1118934973134915	1.2684378806010523	0.0	0.9318921377000168	0.9881502380151593	0.0	1.1792863350096325	0.8546251055063017	0.0	1.2321029767922003	1.2059445046741522	0.0	1.074178841288126	0.9771843893008078	0.0	1.2007415278311675	0.8615584543482897	0.0
67	2.2333333333333334	0.8254318055757328	0.8780117472873741	0.0	0.7754685533218307	0.8728920415851648	0.0	0.7298793761327674	0.44213148650332734	0.0	0.4327869041687449	0.12080184695399404	0.0	0.597521520614488	-0.03805567166391134	0.0	0.5452615109010271	-0.03345480402667626	0.0	0.3631671969366391	0.09177375217190178	0.0	0.8745891686935492	0.8343144452934314	0.0	0.7637037204047625	0.45706224338722934	0.0	0.5705334757563478	0.2089512049584871	0.0	0.7031789688031027	0.04066625870624899	0.0	0.6976938524700323	0.08174520862158964	0.0	0.5096918754746288	0.18709794016193096	0.0	1.2283446562097728	1.3215512068480137	0.0	1.3704887574910947	1.5314190182095238	0.0	1.428183910265694	1.364699492189645	0.0	1.1107236120959372	1.267404441356312	0.0	0.9345399222501519	0.9858697833307699	0.0	1.180713659407113	0.853439651524713	0.0	1.2336785425401493	1.2029582981788332	0.0	1.0743420571057007	0.9754520317507525	0.0	1.2018633780422343	0.8562615097303193	0.0
68	2.2666666666666666	0.8260232428114084	0.8776344678327956	0.0	0.775899034326275	0.8711765300817246	0.0	0.730757364841054	0.4415516652571327	0.0	0.4322052548015342	0.11919607644489039	0.0	0.5975492419394646	-0.038896552057421784	0.0	0.5446557325342484	-0.03462450531535244	0.0	0.3613964157131608	0.09003044862204998	0.0	0.8753355157186231	0.8338268561023449	0.0	0.7638814737745433	0.45709874004388484	0.0	0.5716308605125587	0.20717284420089946	0.0	0.706782239022785	0.03991851448726968	0.0	0.7015376490042379	0.08143941087187545	0.0	0.5121290845221569	0.18355271225314646	0.0	1.2284389701668994	1.3202130885994288	0.0	1.369741647206613	1.5304636247028944	0.0	1.42791374134421	1.3630859133228268	0.0	1.1101539335771444	1.2668825447181291	0.0	0.9366414496311962	0.9839626204399367	0.0	1.1807849141420812	0.8529806781188016	0.0	1.2338090290500363	1.2009227734054275	0.0	1.0746381839888302	0.9744464257736881	0.0	1.2019053196617413	0.8528946686063216	0.0
69	2.3	0.8274495912683458	0.8753335288553089	0.0	0.7776241204457637	0.8706881129311401	0.0	0.7320917177441685	0.4406882767674173	0.0	0.43165496173993745	0.1177477188174455	0.0	0.598499905393767	-0.04320375650251389	0.0	0.5441226480707185	-0.03744410588544021	0.0	0.36066213268473685	0.08950854868361494	0.0	0.8783364078649807	0.8332767937667537	0.0	0.7679678580291001	0.45645063375246936	0.0	0.5709672602643175	0.20416914953749815	0.0	0.7077015471025938	0.03625005645444841	0.0	0.7030897056616602	0.07890168565805147	0.0	0.5139867910119741	0.18081724705358526	0.0	1.2272811965453754	1.3184106920826006	0.0	1.3671901559005315	1.5325510956918336	0.0	1.4256876862700558	1.3647560139505042	0.0	1.110405574158136	1.266119128534134	0.0	0.9373931707642085	0.9844731094222747	0.0	1.1800541214639988	0.8536689764137381	0.0	1.2308978732119507	1.2015492636587777	0.0	1.0748244018500264	0.9740172308728199	0.0	1.2005183710799092	0.8538501045041837	0.0
70	2.3333333333333335	0.8299229060143948	0.871620958555121	0.0	0.7796698740319826	0.8691473424340558	0.0	0.7348731490780473	0.4392102921953793	0.0	0.43093987078403945	0.11622056557841697	0.0	0.599059061177781	-0.047458490739070255	0.0	0.5432380583720258	-0.040318757620679595	0.0	0.36049291140388534	0.08894352146029248	0.0	0.8808598668236708	0.830954161996462	0.0	0.7709147434231429	0.455613776837195	0.0	0.5697278634932736	0.20201909349997355	0.0	0.705508136381965	0.03309104363879843	0.0	0.7012343740963289	0.07644588176600452	0.0	0.5133605831314774	0.17991530451517768	0.0	1.2243687796999245	1.317877611258146	0.0	1.3636923087073205	1.5341581828548767	0.0	1.4214269931966186	1.3680472863289814	0.0	1.1093132105376025	1.2653099370553873	0.0	0.9374822795156212	0.9851492937005258	0.0	1.180721509165641	0.8548771274342952	0.0	1.2261494300136366	1.203668180633376	0.0	1.073329078478529	0.9736883869040444	0.0	1.2002618166618622	0.8561411102518992	0.0
